<svg width="8" height="8" viewBox="0 0 8 8" fill="none" xmlns="http://www.w3.org/2000/svg">
<g clip-path="url(#clip0_6301_120)">
<path d="M7.66665 4L6.85331 3.07L6.96665 1.84L5.76331 1.56667L5.13331 0.5L3.99998 0.986667L2.86665 0.5L2.23665 1.56333L1.03331 1.83333L1.14665 3.06667L0.333313 4L1.14665 4.93L1.03331 6.16333L2.23665 6.43667L2.86665 7.5L3.99998 7.01L5.13331 7.49667L5.76331 6.43333L6.96665 6.16L6.85331 4.93L7.66665 4ZM3.12665 5.33667L2.33331 4.53667C2.30241 4.50583 2.2779 4.4692 2.26117 4.42887C2.24444 4.38855 2.23583 4.34532 2.23583 4.30167C2.23583 4.25801 2.24444 4.21478 2.26117 4.17446C2.2779 4.13413 2.30241 4.0975 2.33331 4.06667L2.35665 4.04333C2.48665 3.91333 2.69998 3.91333 2.82998 4.04333L3.36665 4.58333L5.08331 2.86333C5.21331 2.73333 5.42665 2.73333 5.55665 2.86333L5.57998 2.88667C5.70998 3.01667 5.70998 3.22667 5.57998 3.35667L3.60665 5.33667C3.46998 5.46667 3.25998 5.46667 3.12665 5.33667Z" fill="url(#paint0_linear_6301_120)"/>
<path d="M3.12665 5.33667L2.33332 4.53667C2.30242 4.50583 2.2779 4.4692 2.26118 4.42888C2.24445 4.38856 2.23584 4.34533 2.23584 4.30167C2.23584 4.25802 2.24445 4.21479 2.26118 4.17446C2.2779 4.13414 2.30242 4.09751 2.33332 4.06667L2.35665 4.04334C2.48665 3.91334 2.69999 3.91334 2.82999 4.04334L3.36666 4.58334L5.08332 2.86334C5.21332 2.73334 5.42666 2.73334 5.55666 2.86334L5.57999 2.88667C5.70999 3.01667 5.70999 3.22667 5.57999 3.35667L3.60666 5.33667C3.46999 5.46667 3.25999 5.46667 3.12665 5.33667Z" fill="#F5F8FA"/>
</g>
<defs>
<linearGradient id="paint0_linear_6301_120" x1="0.333313" y1="0.5" x2="7.68287" y2="0.517079" gradientUnits="userSpaceOnUse">
<stop stop-color="#FE5A5A"/>
<stop offset="1" stop-color="#F163D2"/>
</linearGradient>
<clipPath id="clip0_6301_120">
<rect width="8" height="8" rx="4" fill="white"/>
</clipPath>
</defs>
</svg>
